<svg xmlns="http://www.w3.org/2000/svg" viewBox="0 0 512 512" width="512" height="512">
  <rect width="512" height="512" rx="115" fill="url(#bg-gradient)"/>
  <defs>
    <linearGradient id="bg-gradient" x1="0%" y1="0%" x2="100%" y2="100%">
      <stop offset="0%" stop-color="#2c3e50" />
      <stop offset="100%" stop-color="#1a252f" />
    </linearGradient>
    <linearGradient id="accent" x1="0%" y1="0%" x2="100%" y2="100%">
      <stop offset="0%" stop-color="#27ae60" />
      <stop offset="100%" stop-color="#2ecc71" />
    </linearGradient>
  </defs>

  <g stroke="url(#accent)" stroke-width="24" stroke-linecap="round" fill="none">
    <path d="M 130 190 L 130 130 L 190 130" />
    <path d="M 322 130 L 382 130 L 382 190" />
    <path d="M 130 322 L 130 382 L 190 382" />
    <path d="M 382 322 L 382 382 L 322 382" />
  </g>

  <g fill="#ecf0f1">
    <rect x="195" y="190" width="18" height="100" rx="9"/>
    <rect x="230" y="170" width="18" height="120" rx="9"/>
    <rect x="265" y="180" width="18" height="110" rx="9"/>
    <rect x="300" y="200" width="18" height="90" rx="9"/>
  </g>

  <rect x="110" y="254" width="292" height="4" fill="#e74c3c" opacity="0.9" rx="2"/>

  <text x="256" y="445" font-family="-apple-system, BlinkMacSystemFont, sans-serif" font-size="46" font-weight="900" fill="#ffffff" text-anchor="middle" letter-spacing="6">FTC SCAN</text>
</svg>
